<?xml version="1.0" encoding="UTF-8"?>
<svg width="24px" height="20px" viewBox="0 0 24 20" version="1.1" xmlns="http://www.w3.org/2000/svg" xmlns:xlink="http://www.w3.org/1999/xlink">
    <!-- Generator: Sketch 52.2 (67145) - http://www.bohemiancoding.com/sketch -->
    <title>Group 72</title>
    <desc>Created with Sketch.</desc>
    <g id="Page-1" stroke="none" stroke-width="1" fill="none" fill-rule="evenodd">
        <g id="课程详情-课程介绍" transform="translate(-321.000000, -670.000000)">
            <g id="Group-12" transform="translate(30.000000, 608.000000)">
                <g id="Group-7" transform="translate(0.000000, 60.000000)">
                    <g id="Group-6" transform="translate(291.000000, 0.000000)">
                        <g id="Group-72">
                            <rect id="Rectangle" fill="#FFFFFF" opacity="0" x="0" y="0" width="24" height="24"></rect>
                            <g id="Group-8" transform="translate(0.000000, 2.000000)" fill-rule="nonzero">
                                <path d="M23.1002999,6.8 C20.3972009,2.63636364 16.4305232,0 12,0 C7.56947684,0 3.61879374,2.63636364 0.8997001,6.8 C-0.299900033,8.63636364 -0.299900033,11.3636364 0.8997001,13.2 C3.61879374,17.3636364 7.58547151,20 12,20 C16.4305232,20 20.3812063,17.3636364 23.1002999,13.2 C24.2999,11.3636364 24.2999,8.63636364 23.1002999,6.8 Z" id="Path" fill="#C7C7C7"></path>
                                <path d="M12,15 C9.24285714,15 7,12.7571429 7,10 C7,7.24285714 9.24285714,5 12,5 C14.7571429,5 17,7.24285714 17,10 C17,12.7571429 14.7571429,15 12,15 Z M12,7 C10.344,7 9,8.344 9,10 C9,11.656 10.344,13 12,13 C13.656,13 15,11.656 15,10 C15,8.344 13.656,7 12,7 Z" id="Combined-Shape" fill="#FFFFFF"></path>
                            </g>
                        </g>
                    </g>
                </g>
            </g>
        </g>
    </g>
</svg>