<?xml version="1.0" encoding="UTF-8"?>
<svg width="28px" height="28px" viewBox="0 0 28 28" version="1.1" xmlns="http://www.w3.org/2000/svg" xmlns:xlink="http://www.w3.org/1999/xlink">
    <!-- Generator: Sketch 52.2 (67145) - http://www.bohemiancoding.com/sketch -->
    <title>Group 36</title>
    <desc>Created with Sketch.</desc>
    <defs>
        <linearGradient x1="50%" y1="0%" x2="50%" y2="100%" id="linearGradient-1">
            <stop stop-color="#FFD318" offset="0%"></stop>
            <stop stop-color="#FFA80A" offset="100%"></stop>
        </linearGradient>
    </defs>
    <g id="Page-1" stroke="none" stroke-width="1" fill="none" fill-rule="evenodd">
        <g id="课程详情-课程介绍" transform="translate(-30.000000, -609.000000)">
            <g id="Group-12" transform="translate(30.000000, 608.000000)">
                <g id="Group-11">
                    <g id="Group-36" transform="translate(0.000000, 1.000000)">
                        <rect id="Rectangle" fill="#FFFFFF" opacity="0" x="0" y="0" width="28" height="28"></rect>
                        <g id="Group-35">
                            <path d="M1,3.61210849 C1.10521674,2.477278 1.42155321,1.8058668 1.94900942,1.59787491 C3.49607343,0.987820916 10.9145338,0.987820916 11.9124369,2.14516343 C13.0892363,3.50998531 13.7932545,3.998967 14.0244913,3.61210849 C14.5174465,3.00836409 15.5092827,2.3369529 17,1.59787491 C18.2352185,0.985469823 22.5611906,0.273426363 26.3266502,1.59787491 C26.8458944,1.7805119 27.0703443,2.4519231 27,3.61210849 L27,24.6187265 C20.6067932,24.3592904 17.072625,24.5588192 16.3974955,25.2173128 C15.722366,25.8758065 14.9147235,26.3033689 13.974568,26.5 C13.0797981,26.5 12.2308533,26.0724376 11.4277337,25.2173128 C10.421071,24.8182553 7.14240238,24.6187265 1.59172794,24.6187265 L1,3.61210849 Z" id="Rectangle" fill="url(#linearGradient-1)"></path>
                            <path d="M18.4907796,0.503829188 C16.5892045,0.503829188 14.9217914,1.50549798 13.9870446,3.00949192 C13.0522685,1.50552721 11.3848554,0.503829188 9.48328041,0.503829188 L2.65134943,0.503829188 C1.18800551,0.503829188 0.00207637032,1.68921131 0.00207637032,3.15178571 L0.00207637032,23.148581 C0.00207637032,24.6110969 1.18803476,25.7965668 2.65134943,25.7965668 L10.9151278,25.7965668 C11.5852983,26.7569037 12.6986422,27.3853582 13.9590575,27.3853582 C15.2193558,27.3853582 16.3327874,26.7569037 17.0029871,25.7965668 L25.2667948,25.7965668 C26.7295831,25.7965668 27.9160386,24.6110969 27.9160386,23.148581 L27.9160386,3.15178571 C27.9160094,1.68921131 26.7295246,0.503829188 25.2667948,0.503829188 L18.4907796,0.503829188 Z M26.3265625,20.1484933 C26.3265625,20.7334529 25.852068,21.2076584 25.2668825,21.2076584 L16.0118274,21.2076584 C15.7765541,22.1213143 14.9466786,22.7964498 13.9591452,22.7964498 C12.9716118,22.7964498 12.1417948,22.1213143 11.9064631,21.2076584 L2.65140792,21.2076584 C2.06613469,21.2076584 1.59172794,20.7333945 1.59172794,20.1484933 L1.59172794,5.15172725 C1.59172794,4.56676764 2.06622243,4.09256218 2.65140792,4.09256218 L9.4833389,4.09256218 C11.5318683,4.09256218 13.1923212,5.75223746 13.1923212,7.79974224 L13.1923212,16.5057956 L13.1949825,16.5057956 C13.2264497,16.9155187 13.5687291,17.2383982 13.9871324,17.2383982 C14.4050969,17.2383982 14.747698,16.9155479 14.7792823,16.5057956 L14.7819435,16.5057956 L14.7819435,7.79977147 C14.7819435,5.75223746 16.4423964,4.09259141 18.4908966,4.09259141 L25.2669703,4.09259141 C25.8522142,4.09259141 26.3266502,4.56685534 26.3266502,5.15175648 L26.326621,20.1484933 L26.3265625,20.1484933 Z" id="Shape" fill="url(#linearGradient-1)" fill-rule="nonzero"></path>
                            <path d="M19.5609756,13.2409579 L12.3353659,9.12044341 C11.75,8.77706719 11,9.21080556 11,9.87948554 L11,18.1205145 C11,18.7891944 11.7317073,19.2229328 12.3353659,18.8795566 L19.5609756,14.7590421 C20.1463415,14.4156659 20.1463415,13.5843341 19.5609756,13.2409579" id="Path" fill="#FFFFFF"></path>
                        </g>
                    </g>
                </g>
            </g>
        </g>
    </g>
</svg>